# xmcd
#
# Track frame offsets: 
#        150
#        21072
#        41055
#        62378
#        82866
#        104210
#        128357
#        148161
#        169998
#        188128
#
# Disc length: 2773 seconds
#
# Revision: 1
# Processed by: cddbd v1.5.2PL0 Copyright (c) Steve Scherf et al.
# Submitted via: ExactAudioCopy v1.3
#
DISCID=820ad30a
DTITLE=Jeff Lorber Fusion - Impact
DYEAR=2018
DGENRE=Jazz
TTITLE0=Sport Coat Makes Good
TTITLE1=Pasadena City
TTITLE2=Citizenship
TTITLE3=Highline
TTITLE4=Opt In
TTITLE5=Quest
TTITLE6=Sunny Sounds
TTITLE7=Companion
TTITLE8=Arda
TTITLE9=Valinor
EXTD=YEAR: 2018
EXTT0=
EXTT1=
EXTT2=
EXTT3=
EXTT4=
EXTT5=
EXTT6=
EXTT7=
EXTT8=
EXTT9=
PLAYORDER=
